# xmcd
#
# Track frame offsets:
#	150
#	10792
#	21241
#	29801
#
# Disc length: 550 seconds
#
# Revision: 0
# Processed by: cddbd v1.5.2PL0 Copyright (c) Steve Scherf et al.
# Submitted via: EZCDAudioConverter 2.0.5.1
#
DISCID=2a022404
DTITLE=The Ventures - French Sixties EP Collection - CD 6 - Walk Don't Run 64
DYEAR=2005
DGENRE=Instrumental
TTITLE0=Walk Don't Run 64
TTITLE1=The Cruel Sea
TTITLE2=Runnin' Wild
TTITLE3=Tall Cool One
EXTD=
EXTT0=
EXTT1=
EXTT2=
EXTT3=
PLAYORDER=
